<?xml version="1.0" encoding="utf-8"?>
<!-- Generator: Adobe Illustrator 27.1.1, SVG Export Plug-In . SVG Version: 6.00 Build 0)  -->
<svg version="1.1" id="Note" xmlns="http://www.w3.org/2000/svg" xmlns:xlink="http://www.w3.org/1999/xlink" x="0px" y="0px"
	 viewBox="0 0 48 48" style="enable-background:new 0 0 48 48;" xml:space="preserve">
<style type="text/css">
	.st0{fill-opacity:0;}
</style>
<path d="M17.29297,24L24,30.70703L30.70703,24L24,17.29297L17.29297,24z M24,29.29297L18.70703,24L24,18.70703L29.29297,24
	L24,29.29297z M24,32.5c-3.03271,0-5.5,2.46729-5.5,5.5s2.46729,5.5,5.5,5.5s5.5-2.46729,5.5-5.5S27.03271,32.5,24,32.5z M24,42.5
	c-2.48145,0-4.5-2.01855-4.5-4.5s2.01855-4.5,4.5-4.5s4.5,2.01855,4.5,4.5S26.48145,42.5,24,42.5z M28.04395,15.5l1.4751-5.50439
	L27.94727,4.5h-7.99121l-1.4751,5.50439L20.05274,15.5H28.04395z M20.72364,5.5h6.46973l1.2876,4.50439L27.27638,14.5h-6.46973
	l-1.2876-4.50439L20.72364,5.5z M14.70704,35l2,2l-2,2h-1.41406l1.5-1.5h-4.29297v-14h5v1h-4v12h3.29297l-1.5-1.5H14.70704z
	 M37.50001,37.5h-4.29297l1.5,1.5h-1.41406l-2-2l2-2h1.41406l-1.5,1.5h3.29297v-26h-5v-1h6V37.5z"/>
<rect class="st0" width="48" height="48"/>
</svg>
