<?xml version="1.0" encoding="utf-8"?>
<!-- Generator: Adobe Illustrator 27.1.1, SVG Export Plug-In . SVG Version: 6.00 Build 0)  -->
<svg version="1.1" id="Art_3.0" xmlns="http://www.w3.org/2000/svg" xmlns:xlink="http://www.w3.org/1999/xlink" x="0px" y="0px"
	 viewBox="0 0 48 48" style="enable-background:new 0 0 48 48;" xml:space="preserve">
<style type="text/css">
	.st0{fill-opacity:0;}
</style>
<path d="M25.5,21.5h-21v14h8.49731l-0.39771,1.2002h-1.15527v1h7.41064v-1h-1.15576L17.3015,35.5h8.19849v-14H25.5z M16.646,36.7002
	h-2.99316L14.05079,35.5h2.19727C16.24806,35.5,16.64601,36.7002,16.646,36.7002z M24.5,34.5h-19v-12h19V34.5z M10.88135,29.04199
	l1.9707,2.7124c-0.13696,0.23291-0.24585,0.48486-0.30151,0.75781H11.5v1h7v-1h-1.05054
	c-0.18909-0.92725-0.89673-1.65967-1.80298-1.9043l-1.72693-2.37695l1.76648-1.7666l0.60278,0.58887l-0.49048,0.49072
	l0.61035,1.01758l1.12598,0.6499l0.5-0.86621l-0.90137-0.52002l-0.07349-0.12207l0.29517-0.30225l0.2915-0.2915l0.13184,0.07617
	l0.51807,0.89746l0.86621-0.49951l-0.65186-1.12988l-1.0293-0.59375l-0.48584,0.48584l-0.65417-0.63916
	c0.09827-0.19922,0.15857-0.42041,0.15857-0.65771c0-0.82715-0.67285-1.5-1.5-1.5c-0.38074,0-0.72485,0.14697-0.98975,0.38184
	l-0.00146-0.00195l-0.01587,0.01611c-0.03394,0.03076-0.06592,0.06299-0.09692,0.09717l-2.87744,2.87744l0.00232,0.00244
	C10.70459,27.19678,10.5,27.59766,10.5,28.04883c0,0.38184,0.14771,0.72656,0.3833,0.9917
	C10.8833,29.04053,10.88135,29.04199,10.88135,29.04199z M14.34473,26.3916l-1.00195,1.00195
	c-0.14771-0.30127-0.39136-0.54443-0.6936-0.69092l1.00464-1.00439C13.8003,26,14.04347,26.24414,14.34473,26.3916z M12.5,28.04883
	c0,0.27588-0.22412,0.5-0.5,0.5s-0.5-0.22412-0.5-0.5s0.22412-0.5,0.5-0.5S12.5,27.77295,12.5,28.04883z M16.40796,32.51221
	h-2.81592c0.20715-0.58057,0.75696-1,1.40796-1S16.20081,31.93164,16.40796,32.51221z M14.40027,30.59326
	c-0.31641,0.07861-0.60791,0.21533-0.86414,0.40186l-1.10278-1.51758c0.29761-0.09082,0.55432-0.26904,0.74207-0.5083
	l0.00281,0.00293l0.02563-0.02588C13.20386,28.94629,14.40027,30.59326,14.40027,30.59326z M15.5,25.04883
	c0,0.27588-0.22412,0.5-0.5,0.5s-0.5-0.22412-0.5-0.5c0-0.125,0.05029-0.23535,0.12622-0.32324l0.05054-0.05078
	c0.08765-0.07568,0.19849-0.12598,0.32324-0.12598C15.27588,24.54883,15.5,24.77295,15.5,25.04883z M30.5,31
	c0,1.37842,1.12158,2.5,2.5,2.5s2.5-1.12158,2.5-2.5s-1.12158-2.5-2.5-2.5S30.5,29.62158,30.5,31z M34.5,31
	c0,0.82715-0.67285,1.5-1.5,1.5s-1.5-0.67285-1.5-1.5s0.67285-1.5,1.5-1.5S34.5,30.17285,34.5,31z M42.28809,13.62305
	l-2.30225-1.31348l-0.97339,0.9834l-0.92578-0.9165C38.35498,11.9712,38.5,11.49708,38.5,11.00001
	c0-0.66797-0.26025-1.2959-0.73242-1.76758c-0.94434-0.94482-2.59082-0.94434-3.53516,0
	c-0.13647,0.13623-0.24951,0.28857-0.34937,0.44824l-7.85571,7.85547c-0.91589-0.00684-1.83423,0.32129-2.50195,0.98877
	c-0.41675,0.41699-0.69971,0.92578-0.86365,1.4751h1.05029c0.12341-0.28223,0.29602-0.54346,0.52039-0.76758
	c0.47217-0.47266,1.1001-0.73242,1.76758-0.73242s1.29541,0.25977,1.76758,0.73242C28.23975,19.7046,28.5,20.33204,28.5,21.00001
	s-0.26025,1.29541-0.73242,1.76758c-0.22241,0.22266-0.4856,0.38818-0.76758,0.50586v1.06494
	c0.54932-0.16406,1.05786-0.44678,1.47461-0.86328v-0.00049c0.57324-0.57275,0.90674-1.31348,0.98962-2.1084l4.13953,5.19336
	C33.40527,26.5381,33.20422,26.52491,33,26.52491c-1.68604,0-3.19543,0.76416-4.20508,1.9624L27,26.23487v1.60498l1.20068,1.50635
	C27.7561,30.13966,27.5,31.05225,27.5,32.02491v4.4751h-1v1h13v-1h-1v-4.4751c0-2.23535-1.34253-4.15967-3.26184-5.01904
	l-5.19299-6.51562l7.37061-7.37061l0.89307,0.88379l-0.98999,1.00049l1.37158,2.26025l1.75244,0.521l0.28467-0.95898
	l-1.38281-0.41064l-0.76611-1.26318l0.44092-0.44531l0.70361-0.71045l0.43359-0.43799l1.29248,0.7373l0.42334,1.37402
	l0.95557-0.29492l-0.54004-1.75195L42.28809,13.62305z M37.5,32.02491v4.4751h-9v-4.4751c0-2.48145,2.01855-4.5,4.5-4.5
	S37.5,29.54346,37.5,32.02491z M36,9.50001c0.40088,0,0.77734,0.15625,1.06055,0.43945S37.5,10.59962,37.5,11.00001
	s-0.15637,0.77734-0.43945,1.06055c-0.56641,0.56689-1.55469,0.56689-2.12109,0c-0.2832-0.2832-0.43945-0.66016-0.43945-1.06055
	s0.15625-0.77734,0.43945-1.06055s0.65967-0.43945,1.06055-0.43945H36z M29.28784,19.83351
	c-0.17188-0.48486-0.43872-0.93408-0.81323-1.30811c-0.35681-0.35693-0.78772-0.60938-1.24902-0.77344l6.31689-6.31689
	c0.08789,0.50146,0.32227,0.96484,0.68994,1.33252c0.38928,0.38965,0.88635,0.62451,1.42249,0.69873
	C35.65491,13.46632,29.28784,19.83351,29.28784,19.83351z"/>
<rect class="st0" width="48" height="48"/>
</svg>
